Coordinates
version=1
nRows=9
nColumns=36
inDegrees=yes

Units are S.I. units (second, meters, Newtons, ...)
If the header above contains a line with 'inDegrees', this indicates whether rotational values are in degrees (yes) or radians (no).

endheader
time	pelvis_tilt	pelvis_list	pelvis_rotation	pelvis_tx	pelvis_ty	pelvis_tz	hip_flexion_r	hip_adduction_r	hip_rotation_r	knee_angle_r	knee_angle_r_beta	ankle_angle_r	subtalar_angle_r	mtp_angle_r	hip_flexion_l	hip_adduction_l	hip_rotation_l	knee_angle_l	knee_angle_l_beta	ankle_angle_l	subtalar_angle_l	mtp_angle_l	lumbar_extension	lumbar_bending	lumbar_rotation	arm_flex_r	arm_add_r	arm_rot_r	elbow_flex_r	pro_sup_r	arm_flex_l	arm_add_l	arm_rot_l	elbow_flex_l	pro_sup_l
      6.91000000	     -7.46132626	      1.97895412	     -1.42629053	     -0.19123768	      0.93100389	     -0.61523638	     10.87358476	     -5.78348971	      0.84630543	      5.30388562	      0.09257027	     -8.73535614	     -5.60649244	     -7.49999987	     14.34035365	     -2.39360536	     -5.87559449	     13.59692453	      0.23731110	     -7.68541408	     -1.06285792	     -7.49999987	    -15.20305752	     -1.61038180	     -1.53405768	    -20.06978544	     -5.03653294	    -12.70324764	     77.96395114	    100.51223002	    -17.23624363	     -3.97135942	    -12.24822415	     87.45991979	     94.74039753
      6.92000000	     -7.02478171	      1.95139594	     -1.69452289	     -0.18818887	      0.93084934	     -0.61457046	     10.23232056	     -5.75848291	      0.97282470	      5.37183657	      0.09375624	     -8.24253491	     -5.28898415	     -7.49999987	     13.32920093	     -2.46269987	     -6.18035896	     13.11852984	      0.22896154	     -7.28697088	     -0.97733262	     -7.49999987	    -14.83613867	     -1.65300993	     -1.33111122	    -20.35243721	     -5.13686337	    -12.77713840	     78.10650396	    100.47322271	    -17.26082820	     -3.82889389	    -12.49665101	     87.49288255	     94.73441062
      6.93000000	     -6.70098370	      1.85509102	     -2.04981344	     -0.18555408	      0.93025469	     -0.61390748	      9.87028098	     -5.65123096	      1.10501781	      5.63258100	      0.09830708	     -7.73063989	     -5.05545666	     -7.49999987	     12.55208213	     -2.62994888	     -6.50331422	     12.86608303	      0.22455551	     -6.78690264	     -1.00459363	     -7.49999987	    -14.43486943	     -1.60908993	     -1.06222033	    -20.50848572	     -5.31625202	    -12.89676236	     78.25118799	    100.45473853	    -17.27103161	     -3.66531677	    -12.72635464	     87.51702757	     94.73477734
      6.94000000	     -6.28410184	      1.78460963	     -2.39783386	     -0.18323445	      0.92954784	     -0.61332948	      9.49745923	     -5.60065575	      1.22287229	      6.07674477	      0.10605920	     -6.60934959	     -4.34920608	     -7.49999987	     11.79191923	     -2.80910021	     -7.02414635	     12.82496887	      0.22383793	     -5.97633076	     -0.61264158	     -7.49999987	    -14.26579998	     -1.56883149	     -0.80346830	    -20.61293752	     -5.41452960	    -13.19383351	     78.61712158	    100.42830823	    -17.16553671	     -3.53268450	    -12.96995987	     87.52536477	     94.75663366
      6.95000000	     -5.99002783	      1.65562122	     -2.69337709	     -0.18131935	      0.92861845	     -0.61286266	      9.30078282	     -5.46708694	      1.34060166	      6.53418037	      0.11404296	     -6.26507951	     -4.31122367	     -7.49999987	     11.24634211	     -3.01825600	     -7.21695515	     12.89478907	      0.22505653	     -5.56858389	     -0.68973149	     -7.49999987	    -14.04095872	     -1.44323087	     -0.67812765	    -20.53917295	     -5.60375512	    -13.32583956	     78.69614082	    100.42721116	    -17.09465746	     -3.45925310	    -13.09761116	     87.45558122	     94.75081855
      6.96000000	     -5.52413240	      1.54236667	     -3.06892314	     -0.17990378	      0.92771685	     -0.61217787	      9.07157163	     -5.32363152	      1.51518391	      7.27082028	      0.12689975	     -5.26328686	     -4.29113834	     -7.49999987	     10.59414933	     -3.22848839	     -7.65330740	     13.09551786	      0.22855990	     -4.61332144	     -0.82734056	     -7.49999987	    -14.17155153	     -1.35842720	     -0.43187259	    -20.37705562	     -5.74030390	    -13.47278923	     78.99871564	    100.44793278	    -16.76510931	     -3.33043088	    -13.36381657	     87.38515237	     94.74829083
      6.97000000	     -5.11206812	      1.51756065	     -3.34573175	     -0.17856428	      0.92663198	     -0.61162272	      8.93423154	     -5.36071125	      0.91104140	      8.07303896	      0.14090111	     -3.16840814	     -2.38142854	     -7.49999987	     10.13757888	     -3.42458341	     -8.60072567	     13.54342319	      0.23637733	     -3.03133954	      0.68890851	     -7.49999987	    -14.30729371	     -1.32826022	     -0.18145778	    -20.35160859	     -5.73661067	    -13.89779176	     79.52764804	    100.52839156	    -16.43873316	     -3.33985027	    -13.41927637	     87.33007142	     94.91846158
      6.98000000	     -4.75654537	      1.48234004	     -3.55489462	     -0.17781241	      0.92568527	     -0.61123071	      8.71368578	     -5.28281989	      1.05547436	      8.52065299	      0.14871345	     -2.72180983	     -2.56138713	     -7.49999987	      9.74158015	     -3.50377098	     -8.66794242	     13.81074196	      0.24104292	     -2.65384433	      0.51194188	     -7.49999987	    -14.53105801	     -1.25900334	     -0.24899940	    -19.94782753	     -5.82857108	    -13.99980859	     79.74781742	    100.54527472	    -16.13446281	     -3.33307485	    -13.57768185	     87.18012914	     94.91673599
      6.99000000	     -4.39203859	      1.48821383	     -3.73095073	     -0.17718721	      0.92480665	     -0.61101606	      8.43501878	     -5.25352315	      1.06163410	      8.85301196	      0.15451421	     -1.91492697	     -2.85522218	     -7.49999987	      9.35770072	     -3.53132332	     -8.78517468	     14.08008959	      0.24574392	     -2.00392846	      0.36448488	     -7.49999987	    -14.81400817	     -1.22809205	     -0.29193041	    -19.61193765	     -5.91194533	    -14.16199380	     80.07345009	    100.56747991	    -15.74268592	     -3.25487618	    -13.83646479	     86.98218774	     94.91757311
